<?xml version="1.0" encoding="UTF-8"?>
<!DOCTYPE svg PUBLIC "-//W3C//DTD SVG 1.1//EN" "http://www.w3.org/Graphics/SVG/1.1/DTD/svg11.dtd">
<svg xmlns="http://www.w3.org/2000/svg" version="1.1" width="48px" height="48px" style="shape-rendering:geometricPrecision; text-rendering:geometricPrecision; image-rendering:optimizeQuality; fill-rule:evenodd; clip-rule:evenodd" xmlns:xlink="http://www.w3.org/1999/xlink">
<g><path style="opacity:0.997" fill="#53e4fc" d="M 27.5,4.5 C 27.335,7.8499 27.5017,11.1832 28,14.5C 31.3936,15.4558 34.8936,15.7892 38.5,15.5C 38.5,17.8333 38.5,20.1667 38.5,22.5C 37.5849,24.7541 36.2516,26.7541 34.5,28.5C 34.5,29.1667 34.5,29.8333 34.5,30.5C 32.1667,32.1667 30.1667,34.1667 28.5,36.5C 27.596,37.209 27.2627,38.209 27.5,39.5C 28.791,39.7373 29.791,39.404 30.5,38.5C 32.8333,36.8333 34.8333,34.8333 36.5,32.5C 37.1667,32.5 37.8333,32.5 38.5,32.5C 38.5,35.8333 38.5,39.1667 38.5,42.5C 28.5,42.5 18.5,42.5 8.5,42.5C 8.5,29.8333 8.5,17.1667 8.5,4.5C 14.8333,4.5 21.1667,4.5 27.5,4.5 Z"/></g>
<g><path style="opacity:1" fill="#2e81d5" d="M 27.5,4.5 C 31.5,7.83333 35.1667,11.5 38.5,15.5C 34.8936,15.7892 31.3936,15.4558 28,14.5C 27.5017,11.1832 27.335,7.8499 27.5,4.5 Z"/></g>
<g><path style="opacity:1" fill="#057093" d="M 14.5,18.5 C 20.5368,18.1707 26.5368,18.5041 32.5,19.5C 29.5,19.8333 26.5,20.1667 23.5,20.5C 20.0866,20.483 17.0866,19.8164 14.5,18.5 Z"/></g>
<g><path style="opacity:1" fill="#057193" d="M 14.5,22.5 C 19.8746,22.1718 25.2079,22.5052 30.5,23.5C 27.8333,23.8333 25.1667,24.1667 22.5,24.5C 19.4098,24.4783 16.7432,23.8117 14.5,22.5 Z"/></g>
<g><path style="opacity:0.939" fill="#fdbf18" d="M 44.5,24.5 C 43.5,24.1667 42.8333,23.5 42.5,22.5C 42.8333,23.5 43.5,24.1667 44.5,24.5 Z"/></g>
<g><path style="opacity:0.915" fill="#e02b39" d="M 38.5,22.5 C 39.8333,22.5 41.1667,22.5 42.5,22.5C 42.8333,23.5 43.5,24.1667 44.5,24.5C 43.2427,27.4274 41.2427,29.7607 38.5,31.5C 37.7377,29.7376 36.4044,28.7376 34.5,28.5C 36.2516,26.7541 37.5849,24.7541 38.5,22.5 Z"/></g>
<g><path style="opacity:1" fill="#057093" d="M 14.5,26.5 C 20.2055,26.1712 25.8722,26.5046 31.5,27.5C 28.6667,27.8333 25.8333,28.1667 23,28.5C 19.7485,28.4809 16.9151,27.8142 14.5,26.5 Z"/></g>
<g><path style="opacity:1" fill="#f5ab2a" d="M 34.5,28.5 C 36.4044,28.7376 37.7377,29.7376 38.5,31.5C 38.5,31.8333 38.5,32.1667 38.5,32.5C 37.8333,32.5 37.1667,32.5 36.5,32.5C 36.1667,31.5 35.5,30.8333 34.5,30.5C 34.5,29.8333 34.5,29.1667 34.5,28.5 Z"/></g>
<g><path style="opacity:1" fill="#057194" d="M 14.5,30.5 C 18.5546,30.1758 22.5546,30.5091 26.5,31.5C 24.5,31.8333 22.5,32.1667 20.5,32.5C 18.0478,32.4609 16.0478,31.7943 14.5,30.5 Z"/></g>
<g><path style="opacity:1" fill="#f04650" d="M 34.5,30.5 C 35.5,30.8333 36.1667,31.5 36.5,32.5C 34.8333,34.8333 32.8333,36.8333 30.5,38.5C 29.791,39.404 28.791,39.7373 27.5,39.5C 27.2627,38.209 27.596,37.209 28.5,36.5C 30.1667,34.1667 32.1667,32.1667 34.5,30.5 Z"/></g>
<g><path style="opacity:1" fill="#fbc01d" d="M 28.5,36.5 C 28.8333,37.5 29.5,38.1667 30.5,38.5C 29.5,38.1667 28.8333,37.5 28.5,36.5 Z"/></g>
</svg>
