<?xml version="1.0" standalone="no"?>
<!DOCTYPE svg PUBLIC "-//W3C//DTD SVG 20010904//EN"
 "http://www.w3.org/TR/2001/REC-SVG-20010904/DTD/svg10.dtd">
<svg version="1.0" xmlns="http://www.w3.org/2000/svg"
 width="512.000000pt" height="512.000000pt" viewBox="0 0 512.000000 512.000000"
 preserveAspectRatio="xMidYMid meet">
<metadata>
Created by potrace 1.16, written by Peter Selinger 2001-2019
</metadata>
<g transform="translate(0.000000,512.000000) scale(0.100000,-0.100000)"
fill="#000000" stroke="none">
<path d="M142 5094 c-59 -29 -96 -69 -125 -133 -24 -55 -20 -166 7 -226 13
-28 349 -370 1085 -1107 l1066 -1068 -1066 -1067 c-736 -738 -1072 -1080
-1085 -1108 -27 -60 -31 -171 -7 -226 47 -105 131 -159 247 -159 49 0 85 7
116 21 35 15 281 256 1112 1087 l1068 1067 1067 -1067 c830 -829 1078 -1072
1113 -1087 31 -14 66 -21 115 -21 114 0 192 46 241 142 32 62 33 171 3 238
-15 35 -256 281 -1087 1112 l-1067 1068 1067 1067 c831 832 1072 1078 1087
1113 30 67 29 176 -3 238 -49 96 -127 142 -241 142 -49 0 -84 -7 -115 -21 -35
-15 -283 -258 -1113 -1087 l-1067 -1067 -1068 1067 c-831 831 -1077 1072
-1112 1087 -68 31 -171 29 -238 -5z"/>
</g>
</svg>
