<?xml version="1.0" standalone="no"?>
<!DOCTYPE svg PUBLIC "-//W3C//DTD SVG 20010904//EN"
 "http://www.w3.org/TR/2001/REC-SVG-20010904/DTD/svg10.dtd">
<svg version="1.0" xmlns="http://www.w3.org/2000/svg"
 width="512.000000pt" height="512.000000pt" viewBox="0 0 512.000000 512.000000"
 preserveAspectRatio="xMidYMid meet">
<metadata>
Created by potrace 1.16, written by Peter Selinger 2001-2019
</metadata>
<g transform="translate(0.000000,512.000000) scale(0.100000,-0.100000)"
fill="#ffffff" stroke="none">
<path d="M2305 5114 c-333 -34 -638 -125 -932 -279 -660 -344 -1144 -965
-1311 -1685 -49 -208 -57 -292 -57 -590 0 -298 8 -382 57 -590 168 -720 650
-1341 1311 -1685 256 -134 491 -211 792 -262 159 -26 631 -26 790 0 301 51
536 128 792 262 661 344 1143 965 1311 1685 49 208 57 292 57 590 0 298 -8
382 -57 590 -168 720 -650 1341 -1311 1685 -253 132 -489 210 -787 261 -92 15
-555 28 -655 18z m13 -849 c51 -22 1594 -1563 1622 -1621 11 -22 20 -60 20
-84 0 -24 -9 -62 -20 -84 -28 -58 -1571 -1599 -1622 -1621 -48 -19 -109 -19
-156 1 -23 9 -110 87 -231 207 -236 235 -259 273 -230 382 9 34 89 118 547
578 l537 537 -537 538 c-458 459 -538 543 -547 577 -29 109 -6 147 230 382
110 108 209 198 229 207 45 20 111 20 158 1z"/>
</g>
</svg>
