<?xml version="1.0" encoding="UTF-8"?>
<!DOCTYPE svg PUBLIC "-//W3C//DTD SVG 1.1//EN" "http://www.w3.org/Graphics/SVG/1.1/DTD/svg11.dtd">
<svg xmlns="http://www.w3.org/2000/svg" version="1.1" width="512px" height="512px" style="shape-rendering:geometricPrecision; text-rendering:geometricPrecision; image-rendering:optimizeQuality; fill-rule:evenodd; clip-rule:evenodd" xmlns:xlink="http://www.w3.org/1999/xlink">
<g><path style="opacity:0.961" fill="#ffffff" d="M 511.5,97.5 C 511.5,202.833 511.5,308.167 511.5,413.5C 507.252,426.573 498.252,434.073 484.5,436C 331.833,436.667 179.167,436.667 26.5,436C 12.7483,434.073 3.74826,426.573 -0.5,413.5C -0.5,308.167 -0.5,202.833 -0.5,97.5C 3.62216,84.8855 12.2888,77.3855 25.5,75C 178.5,74.3333 331.5,74.3333 484.5,75C 498.252,76.9272 507.252,84.4272 511.5,97.5 Z M 27.5,95.5 C 179.5,95.3333 331.5,95.5 483.5,96C 489.795,98.4252 491.962,102.925 490,109.5C 488.127,111.709 485.96,113.542 483.5,115C 409.668,158.748 336.001,202.748 262.5,247C 257.833,250.333 253.167,250.333 248.5,247C 173.833,202.333 99.1667,157.667 24.5,113C 20.7235,110.045 19.5568,106.212 21,101.5C 22.4936,98.6865 24.6603,96.6865 27.5,95.5 Z M 19.5,135.5 C 92.7753,178.474 165.775,221.974 238.5,266C 249.833,272 261.167,272 272.5,266C 345.001,222.248 417.668,178.748 490.5,135.5C 491.667,225.498 491.833,315.498 491,405.5C 490.728,410.438 488.228,413.604 483.5,415C 331.5,415.667 179.5,415.667 27.5,415C 22.7723,413.604 20.2723,410.438 20,405.5C 19.5,315.501 19.3333,225.501 19.5,135.5 Z"/></g>
</svg>
