<?xml version="1.0" encoding="utf-8"?>
<!-- Generator: Adobe Illustrator 27.0.0, SVG Export Plug-In . SVG Version: 6.00 Build 0)  -->
<svg version="1.1" id="Capa_1" xmlns="http://www.w3.org/2000/svg" xmlns:xlink="http://www.w3.org/1999/xlink" x="0px" y="0px"
	 viewBox="0 0 1200 830" style="enable-background:new 0 0 1200 830;" xml:space="preserve">
<style type="text/css">
	.st0{clip-path:url(#SVGID_00000067219167788584184430000013524900747084350885_);fill:#FFB600;}
	
		.st1{clip-path:url(#SVGID_00000067219167788584184430000013524900747084350885_);fill-rule:evenodd;clip-rule:evenodd;fill:#D7282F;}
	
		.st2{clip-path:url(#SVGID_00000067219167788584184430000013524900747084350885_);fill-rule:evenodd;clip-rule:evenodd;fill:#EDCA28;}
	
		.st3{clip-path:url(#SVGID_00000067219167788584184430000013524900747084350885_);fill-rule:evenodd;clip-rule:evenodd;fill:#009ABF;}
</style>
<g>
	<defs>
		<rect id="SVGID_1_" x="3.3" y="-0.1" width="1196.7" height="815.1"/>
	</defs>
	<clipPath id="SVGID_00000177458876964384638050000012993074144441692316_">
		<use xlink:href="#SVGID_1_"  style="overflow:visible;"/>
	</clipPath>
	<path style="clip-path:url(#SVGID_00000177458876964384638050000012993074144441692316_);fill:#FFB600;" d="M346.5,61.2
		c2,0,3.8-0.3,5.4-1c1.6-0.7,2.9-1.6,4-2.8c1.1-1.2,1.9-2.7,2.5-4.4c0.6-1.7,0.9-3.7,0.9-5.8V13.3h10.4v33.7c0,3.3-0.5,6.4-1.6,9.3
		c-1.1,2.8-2.6,5.3-4.6,7.4c-2,2.1-4.4,3.7-7.3,4.8c-2.9,1.2-6.1,1.7-9.7,1.7c-3.6,0-6.8-0.6-9.7-1.7c-2.9-1.2-5.3-2.8-7.3-4.8
		c-2-2.1-3.5-4.5-4.6-7.4c-1.1-2.8-1.6-5.9-1.6-9.3V13.3h10.4V47c0,2.2,0.3,4.1,0.9,5.8c0.6,1.7,1.4,3.2,2.5,4.5
		c1.1,1.2,2.4,2.2,4,2.9C342.7,60.9,344.5,61.2,346.5,61.2"/>
	<path style="clip-path:url(#SVGID_00000177458876964384638050000012993074144441692316_);fill:#FFB600;" d="M395.6,13.4
		c0.3,0,0.6,0.1,0.8,0.2c0.2,0.1,0.5,0.3,0.7,0.5c0.2,0.2,0.5,0.5,0.8,0.9l29.3,37.7c-0.1-0.9-0.2-1.8-0.2-2.7
		c0-0.9-0.1-1.7-0.1-2.4V13.3h9.2v56.3h-5.4c-0.8,0-1.5-0.1-2-0.4c-0.5-0.3-1.1-0.7-1.6-1.4l-29.2-37.5c0.1,0.8,0.1,1.7,0.2,2.5
		c0,0.8,0.1,1.6,0.1,2.2v34.6h-9.2V13.3h5.5C394.9,13.3,395.2,13.3,395.6,13.4"/>
	<path style="clip-path:url(#SVGID_00000177458876964384638050000012993074144441692316_);fill:#FFB600;" d="M505.7,41.5
		c0,4.1-0.7,7.9-2,11.4c-1.4,3.5-3.3,6.4-5.8,8.9c-2.5,2.5-5.4,4.4-8.9,5.8c-3.5,1.4-7.3,2.1-11.6,2.1H456V13.3h21.3
		c4.2,0,8.1,0.7,11.6,2.1c3.5,1.4,6.5,3.3,8.9,5.8c2.5,2.5,4.4,5.4,5.8,8.9C505,33.6,505.7,37.4,505.7,41.5 M495,41.5
		c0-3.1-0.4-5.9-1.2-8.3c-0.8-2.5-2-4.5-3.5-6.2c-1.5-1.7-3.4-3-5.5-3.9c-2.2-0.9-4.6-1.4-7.4-1.4h-10.9v39.7h10.9
		c2.7,0,5.2-0.5,7.4-1.4c2.2-0.9,4-2.2,5.5-3.9c1.5-1.7,2.7-3.8,3.5-6.2C494.6,47.4,495,44.6,495,41.5"/>
	<path style="clip-path:url(#SVGID_00000177458876964384638050000012993074144441692316_);fill:#FFB600;" d="M569.7,69.7h-8
		c-0.9,0-1.6-0.2-2.2-0.7c-0.6-0.5-1-1-1.3-1.7L554,55.8h-23.2l-4.2,11.5c-0.2,0.6-0.6,1.1-1.2,1.6c-0.6,0.5-1.3,0.7-2.2,0.7h-8.1
		l22-56.3h10.6L569.7,69.7z M533.5,48.4h17.8l-6.8-18.7c-0.3-0.8-0.7-1.8-1-2.9c-0.4-1.1-0.7-2.4-1.1-3.7c-0.4,1.3-0.7,2.6-1.1,3.7
		c-0.3,1.1-0.7,2.1-1,3L533.5,48.4z"/>
	<path style="clip-path:url(#SVGID_00000177458876964384638050000012993074144441692316_);fill:#FFB600;" d="M620.5,56.4
		c0.6,0,1.1,0.2,1.5,0.7l4.1,4.5c-2.3,2.8-5.1,5-8.4,6.5c-3.3,1.5-7.3,2.3-11.9,2.3c-4.2,0-7.9-0.7-11.2-2.1c-3.3-1.4-6.1-3.4-8.5-6
		c-2.3-2.5-4.1-5.6-5.4-9.1c-1.3-3.5-1.9-7.4-1.9-11.6c0-4.2,0.7-8.1,2.1-11.6c1.4-3.5,3.4-6.6,5.9-9.1c2.5-2.5,5.6-4.5,9.1-5.9
		c3.5-1.4,7.4-2.1,11.7-2.1c4.1,0,7.8,0.7,10.9,2c3.1,1.3,5.8,3.1,8,5.3l-3.5,4.9c-0.2,0.3-0.5,0.6-0.8,0.8
		c-0.3,0.2-0.8,0.4-1.3,0.4c-0.6,0-1.2-0.2-1.8-0.7c-0.6-0.5-1.4-1-2.4-1.5c-1-0.5-2.2-1.1-3.6-1.5c-1.5-0.5-3.3-0.7-5.6-0.7
		c-2.6,0-5,0.5-7.2,1.4c-2.2,0.9-4.1,2.2-5.7,4c-1.6,1.7-2.8,3.8-3.7,6.3c-0.9,2.5-1.3,5.2-1.3,8.3c0,3.2,0.4,6,1.3,8.5
		c0.9,2.5,2.1,4.5,3.6,6.2c1.5,1.7,3.3,3,5.4,3.9c2.1,0.9,4.3,1.3,6.6,1.3c1.4,0,2.7-0.1,3.8-0.2c1.1-0.2,2.2-0.4,3.2-0.7
		c1-0.3,1.9-0.8,2.7-1.3c0.9-0.5,1.7-1.2,2.6-2c0.3-0.2,0.5-0.4,0.8-0.6C619.9,56.4,620.2,56.4,620.5,56.4"/>
	
		<rect x="643.9" y="13.3" style="clip-path:url(#SVGID_00000177458876964384638050000012993074144441692316_);fill:#FFB600;" width="10.4" height="56.3"/>
	<path style="clip-path:url(#SVGID_00000177458876964384638050000012993074144441692316_);fill:#FFB600;" d="M729.1,41.5
		c0,4.1-0.7,8-2,11.5c-1.4,3.5-3.3,6.6-5.8,9.1c-2.5,2.6-5.4,4.6-8.9,6c-3.5,1.4-7.3,2.2-11.6,2.2c-4.2,0-8.1-0.7-11.6-2.2
		c-3.5-1.4-6.5-3.4-9-6c-2.5-2.6-4.4-5.6-5.8-9.1c-1.4-3.5-2-7.3-2-11.5s0.7-8,2-11.5c1.4-3.5,3.3-6.6,5.8-9.1c2.5-2.6,5.5-4.6,9-6
		c3.5-1.4,7.4-2.2,11.6-2.2c4.2,0,8.1,0.7,11.6,2.2c3.5,1.5,6.5,3.5,8.9,6c2.5,2.6,4.4,5.6,5.8,9.1
		C728.5,33.5,729.1,37.4,729.1,41.5 M718.5,41.5c0-3.1-0.4-5.9-1.2-8.3c-0.8-2.5-2-4.5-3.5-6.3c-1.5-1.7-3.4-3-5.5-3.9
		c-2.2-0.9-4.6-1.4-7.4-1.4s-5.2,0.5-7.4,1.4c-2.2,0.9-4.1,2.2-5.6,3.9c-1.5,1.7-2.7,3.8-3.5,6.3c-0.8,2.5-1.2,5.2-1.2,8.3
		c0,3.1,0.4,5.9,1.2,8.3c0.8,2.5,2,4.5,3.5,6.2c1.5,1.7,3.4,3,5.6,3.9c2.2,0.9,4.7,1.4,7.4,1.4s5.2-0.5,7.4-1.4
		c2.2-0.9,4-2.2,5.5-3.9c1.5-1.7,2.7-3.8,3.5-6.2C718.1,47.4,718.5,44.6,718.5,41.5 M715.8-0.1l-11.4,8.4c-0.3,0.2-0.6,0.4-0.8,0.5
		c-0.2,0.1-0.5,0.2-0.7,0.3c-0.2,0.1-0.5,0.1-0.8,0.2c-0.3,0-0.6,0-0.9,0h-7.5l7.6-7.9c0.3-0.3,0.6-0.6,0.9-0.8
		c0.3-0.2,0.5-0.4,0.8-0.5c0.3-0.1,0.6-0.2,1-0.2c0.4,0,0.8-0.1,1.3-0.1H715.8z"/>
	<path style="clip-path:url(#SVGID_00000177458876964384638050000012993074144441692316_);fill:#FFB600;" d="M752.6,13.4
		c0.3,0,0.6,0.1,0.8,0.2c0.2,0.1,0.5,0.3,0.7,0.5c0.2,0.2,0.5,0.5,0.8,0.9l29.3,37.7c-0.1-0.9-0.2-1.8-0.2-2.7
		c0-0.9-0.1-1.7-0.1-2.4V13.3h9.2v56.3h-5.4c-0.8,0-1.5-0.1-2.1-0.4c-0.5-0.3-1.1-0.7-1.6-1.4l-29.2-37.5c0.1,0.8,0.1,1.7,0.2,2.5
		c0,0.8,0.1,1.6,0.1,2.2v34.6H746V13.3h5.5C751.9,13.3,752.3,13.3,752.6,13.4"/>
	
		<path style="clip-path:url(#SVGID_00000177458876964384638050000012993074144441692316_);fill-rule:evenodd;clip-rule:evenodd;fill:#D7282F;" d="
		M512.6,815c-97.6-2.3-176.6-43-238-119c-21.5-26.6-34.3-57.4-38.1-91.8c-3.6-32.3,9.9-60.8,37-76.4c27.6-15.8,62.5-14,86.8,5.8
		c9.4,7.6,17.7,16.9,25.4,26.4c20.2,24.6,43.1,45.9,71.8,60.2c37.1,18.5,74.3,18.4,111.4-0.1c28.7-14.3,51.5-35.6,71.7-60.3
		c7.3-9,15.2-17.8,24.1-25.2c24.3-20.4,59.5-22.8,87.4-7c27.8,15.7,41.4,44.7,37.5,77.8c-5.2,43.7-25.3,80.1-55,111
		c-49.9,52.1-109.8,85.5-181.6,95.8c-2,0.3-4,0.4-6.1,0.6C535.6,813.5,524.3,814.2,512.6,815 M513.1,765
		c54.8,0.5,104-16.2,147.7-49.5c23.8-18.1,45.5-38.3,62.2-63.4c10.7-16,18.3-33.2,19.6-52.8c1.3-20.7-13-35.6-32.4-32.3
		c-7,1.2-14.4,5.3-19.7,10.1c-7.4,6.8-12.9,15.7-19.7,23.3c-10.4,11.8-20,24.6-31.9,34.7c-47.1,40.1-100.9,58.6-162.6,45.4
		c-49.3-10.6-88.9-37.5-119.6-77.8c-7.9-10.4-16.2-20.8-25.8-29.5c-9.7-8.7-21.7-9.1-33.4-2.8c-11.6,6.2-14.6,16.6-13.9,28.9
		c1.1,20.3,8.7,38.4,20.6,54.2C356.7,723.2,424.2,764.6,513.1,765"/>
	<path style="clip-path:url(#SVGID_00000177458876964384638050000012993074144441692316_);fill:#FFB600;" d="M242.3,97.2
		c7.7,15.7,11.5,33.2,11.5,52.5c0,19.3-3.8,36.7-11.5,52.3c-7.7,15.6-17.5,28-29.6,37.2c-24.4,19-49.8,28.5-76,28.5H81.5V318
		c0,6.8-0.2,11.9-0.7,15.4c-0.4,3.4-1.8,7.3-4.2,11.8c-4.1,8-15.6,12-34.5,12c-20.6,0-32.7-5.5-36.2-16.5c-1.8-5-2.6-12.8-2.6-23.2
		V70.5c0-6.8,0.2-11.9,0.7-15.4c0.4-3.4,1.8-7.3,4.2-11.8c4.1-8,15.6-12,34.5-12h94.5c25.9,0,51.1,9.5,75.5,28.5
		C224.7,69,234.6,81.5,242.3,97.2 M163.2,179.1c8.5-6.5,12.8-16.3,12.8-29.4c0-13.1-4.3-22.9-12.8-29.6c-8.5-6.7-17.4-10-26.5-10
		H81.5v78.8h55.7C146,188.9,154.7,185.7,163.2,179.1"/>
	<path style="clip-path:url(#SVGID_00000177458876964384638050000012993074144441692316_);fill:#FFB600;" d="M523.7,123
		c29.4,0,54,11.4,73.6,34.1c19.6,22.7,29.4,50.4,29.4,83v78.4c0,6.8-0.2,11.9-0.7,15.4c-0.4,3.4-1.7,7.2-3.8,11.3
		c-4.1,8-15.6,12-34.5,12c-20.9,0-33-5.5-36.2-16.5c-1.8-5-2.7-12.6-2.7-22.7v-78.4c0-12.2-3.5-21.7-10.4-28.5
		c-6.9-6.8-16.2-10.2-27.8-10.2c-11.6,0-21.1,3.6-28.3,10.7c-7.2,7.1-10.8,16.5-10.8,28v78.8c0,6.8-0.2,11.9-0.7,15.4
		c-0.4,3.4-1.8,7.2-4.2,11.3c-3.8,8-15.2,12-34,12c-18.6,0-29.9-4-34-12c-2.1-4.5-3.3-8.4-3.8-11.8c-0.4-3.4-0.7-8.5-0.7-15.4V160.4
		c0-6.5,0.2-11.5,0.7-14.9c0.4-3.4,1.8-7.2,4.2-11.3c4.1-7.4,15.5-11.1,34-11.1c18,0,29,3.4,33.1,10.2c2.9,5,4.4,11.1,4.4,18.3
		c1.2-2.1,3.8-5,8-8.9c4.1-3.9,8.1-7,11.9-9.3C500.5,126.5,511.6,123,523.7,123"/>
	<path style="clip-path:url(#SVGID_00000177458876964384638050000012993074144441692316_);fill:#FFB600;" d="M908.9,201.8l-28.7-1.8
		v61.4c0,8,1.3,13.8,3.8,17.4c2.5,3.6,7.2,5.3,14.1,5.3c6.9,0,12.2,0.2,15.9,0.7c3.7,0.4,7.6,1.9,11.7,4.2
		c6.8,3.9,10.2,13.8,10.2,29.8c0,18.7-4.1,30.1-12.4,34.3c-4.4,2.1-8.3,3.3-11.7,3.8c-3.4,0.4-8.3,0.7-14.8,0.7
		c-30.6,0-53.9-7-69.8-20.9c-15.9-13.9-23.9-37.5-23.9-70.8v-65.9c-5.6,0.9-11.6,1.3-18.1,1.3c-6.5,0-11.9-2.5-16.1-7.6
		c-4.3-5-6.4-13.7-6.4-25.8c0-12.2,0.7-21,2.2-26.5c1.5-5.5,3.5-9.4,6.2-11.8c4.7-3.9,10.6-5.8,17.7-5.8l14.6,1.8v-8.8
		c0-6.8,0.2-8.5,0.7-11.7c0.4-3.3,1.8-6.8,4.2-10.7c3.8-7.4,15.2-11.1,34-11.1c20,0,32,5.5,35.8,16.5c1.5,4.7,2.2,8.9,2.2,19.3v6.6
		c13-1.2,22.8-1.8,29.4-1.8c6.6,0,11.6,0.2,15,0.7c3.4,0.4,7.3,1.9,11.7,4.2c7.7,3.9,11.5,15.3,11.5,34.3c0,18.7-4,30.1-11.9,34.3
		c-4.4,2.1-8.3,3.3-11.7,3.8C920.7,201.6,915.7,201.8,908.9,201.8"/>
	<path style="clip-path:url(#SVGID_00000177458876964384638050000012993074144441692316_);fill:#FFB600;" d="M1123.1,148
		c1.8-16.6,13.4-24.9,34.9-24.9c11.5,0,20,0.9,25.6,2.7c5.6,1.8,9.5,4.9,11.7,9.3c2.2,4.5,3.5,8.4,4,11.8c0.4,3.4,0.7,8.5,0.7,15.4
		V318c0,6.8-0.2,11.9-0.7,15.4c-0.4,3.4-1.7,7.3-3.8,11.8c-4.1,7.7-14.2,11.6-30.3,11.6c-16.1,0-26.8-2-32.3-6
		c-5.5-4-8.6-9.9-9.5-17.6c-10.9,15.7-29.1,23.6-54.6,23.6c-25.5,0-49.1-11.7-70.9-35.2c-21.8-23.4-32.7-50.7-32.7-81.7
		c0-31,11-58.2,32.9-81.5c21.9-23.3,46-34.9,72.2-34.9c10,0,19.1,1.8,27.4,5.3c8.2,3.6,14,6.9,17.2,10
		C1118.4,142,1121.1,145,1123.1,148 M1042.7,240.6c0,9.8,3.8,18.6,11.5,26.5c7.6,7.9,16.9,11.8,27.8,11.8c10.9,0,19.9-4,27.2-12
		c7.2-8,10.8-16.8,10.8-26.5c0-9.6-3.5-18.6-10.4-26.9c-6.9-8.3-16.2-12.5-27.8-12.5c-11.6,0-21.1,4.2-28.3,12.5
		C1046.3,221.7,1042.7,230.8,1042.7,240.6"/>
	
		<path style="clip-path:url(#SVGID_00000177458876964384638050000012993074144441692316_);fill-rule:evenodd;clip-rule:evenodd;fill:#D7282F;" d="
		M589.9,485.4c0,42.7-34.4,77.4-76.8,77.4c-42.4,0-76.8-34.6-76.8-77.4c0-42.8,34.4-77.4,76.8-77.4
		C555.6,408,589.9,442.7,589.9,485.4"/>
	<path style="clip-path:url(#SVGID_00000177458876964384638050000012993074144441692316_);fill:#FFB600;" d="M360.1,314.4
		c0,6.8-0.2,11.9-0.7,15.4c-0.4,3.4-1.7,7.3-3.8,11.8c-4.1,7.7-15.6,11.6-34.5,11.6c-14.1,0-24.1-2.5-30-7.6c-5-4.2-7.7-10.5-8-19.1
		c-0.3-3-0.4-7.3-0.4-12.9V157.7c0-6.8,0.2-11.9,0.7-15.4c0.4-3.4,1.8-7.3,4.2-11.8c3.8-7.7,15.2-11.6,34-11.6c18.6,0,29.9,4,34,12
		c2.1,4.5,3.3,8.3,3.8,11.6c0.4,3.3,0.7,8.5,0.7,15.6V314.4z"/>
	<path style="clip-path:url(#SVGID_00000177458876964384638050000012993074144441692316_);fill:#FFB600;" d="M736.3,314.4
		c0,6.8-0.2,11.9-0.7,15.4c-0.4,3.4-1.7,7.3-3.8,11.8c-4.1,7.7-15.6,11.6-34.5,11.6c-14.1,0-24.1-2.5-30-7.6
		c-5-4.2-7.7-10.5-7.9-19.1c-0.3-3-0.4-7.3-0.4-12.9V157.7c0-6.8,0.2-11.9,0.7-15.4c0.4-3.4,1.8-7.3,4.2-11.8
		c3.8-7.7,15.2-11.6,34-11.6c18.6,0,29.9,4,34,12c2.1,4.5,3.3,8.3,3.8,11.6c0.4,3.3,0.7,8.5,0.7,15.6V314.4z"/>
	
		<path style="clip-path:url(#SVGID_00000177458876964384638050000012993074144441692316_);fill-rule:evenodd;clip-rule:evenodd;fill:#EDCA28;" d="
		M369,418.8c0,26.4-21.2,47.8-47.5,47.8c-26.2,0-47.5-21.4-47.5-47.8c0-26.4,21.3-47.8,47.5-47.8C347.8,371,369,392.4,369,418.8"/>
	
		<path style="clip-path:url(#SVGID_00000177458876964384638050000012993074144441692316_);fill-rule:evenodd;clip-rule:evenodd;fill:#EDCA28;" d="
		M745.2,418.8c0,26.4-21.2,47.8-47.5,47.8c-26.2,0-47.5-21.4-47.5-47.8c0-26.4,21.3-47.8,47.5-47.8C724,371,745.2,392.4,745.2,418.8
		"/>
	
		<path style="clip-path:url(#SVGID_00000177458876964384638050000012993074144441692316_);fill-rule:evenodd;clip-rule:evenodd;fill:#009ABF;" d="
		M369,418.8c0,26.4-21.2,47.8-47.5,47.8c-26.2,0-47.5-21.4-47.5-47.8c0-26.4,21.3-47.8,47.5-47.8C347.8,371,369,392.4,369,418.8"/>
	
		<path style="clip-path:url(#SVGID_00000177458876964384638050000012993074144441692316_);fill-rule:evenodd;clip-rule:evenodd;fill:#009ABF;" d="
		M745.2,418.8c0,26.4-21.2,47.8-47.5,47.8c-26.2,0-47.5-21.4-47.5-47.8c0-26.4,21.3-47.8,47.5-47.8C724,371,745.2,392.4,745.2,418.8
		"/>
	<polygon style="clip-path:url(#SVGID_00000177458876964384638050000012993074144441692316_);fill:#FFB600;" points="307.2,13.3 
		307.2,21.7 282.4,21.7 282.4,38.3 303.3,38.3 303.3,46.7 282.4,46.7 282.4,69.7 271.9,69.7 271.9,13.3 	"/>
	<path style="clip-path:url(#SVGID_00000177458876964384638050000012993074144441692316_);fill:#FFB600;" d="M346.5,61.2
		c2,0,3.8-0.3,5.4-1c1.6-0.7,2.9-1.6,4-2.8c1.1-1.2,1.9-2.7,2.5-4.4c0.6-1.7,0.9-3.7,0.9-5.8V13.3h10.4v33.7c0,3.3-0.5,6.4-1.6,9.3
		c-1.1,2.8-2.6,5.3-4.6,7.4c-2,2.1-4.4,3.7-7.3,4.8c-2.9,1.2-6.1,1.7-9.7,1.7c-3.6,0-6.8-0.6-9.7-1.7c-2.9-1.2-5.3-2.8-7.3-4.8
		c-2-2.1-3.5-4.5-4.6-7.4c-1.1-2.8-1.6-5.9-1.6-9.3V13.3h10.4V47c0,2.2,0.3,4.1,0.9,5.8c0.6,1.7,1.4,3.2,2.5,4.5
		c1.1,1.2,2.4,2.2,4,2.9C342.7,60.9,344.5,61.2,346.5,61.2"/>
	<path style="clip-path:url(#SVGID_00000177458876964384638050000012993074144441692316_);fill:#FFB600;" d="M395.6,13.4
		c0.3,0,0.6,0.1,0.8,0.2c0.2,0.1,0.5,0.3,0.7,0.5c0.2,0.2,0.5,0.5,0.8,0.9l29.3,37.7c-0.1-0.9-0.2-1.8-0.2-2.7
		c0-0.9-0.1-1.7-0.1-2.4V13.3h9.2v56.3h-5.4c-0.8,0-1.5-0.1-2-0.4c-0.5-0.3-1.1-0.7-1.6-1.4l-29.2-37.5c0.1,0.8,0.1,1.7,0.2,2.5
		c0,0.8,0.1,1.6,0.1,2.2v34.6h-9.2V13.3h5.5C394.9,13.3,395.2,13.3,395.6,13.4"/>
	<path style="clip-path:url(#SVGID_00000177458876964384638050000012993074144441692316_);fill:#FFB600;" d="M505.7,41.5
		c0,4.1-0.7,7.9-2,11.4c-1.4,3.5-3.3,6.4-5.8,8.9c-2.5,2.5-5.4,4.4-8.9,5.8c-3.5,1.4-7.3,2.1-11.6,2.1H456V13.3h21.3
		c4.2,0,8.1,0.7,11.6,2.1c3.5,1.4,6.5,3.3,8.9,5.8c2.5,2.5,4.4,5.4,5.8,8.9C505,33.6,505.7,37.4,505.7,41.5 M495,41.5
		c0-3.1-0.4-5.9-1.2-8.3c-0.8-2.5-2-4.5-3.5-6.2c-1.5-1.7-3.4-3-5.5-3.9c-2.2-0.9-4.6-1.4-7.4-1.4h-10.9v39.7h10.9
		c2.7,0,5.2-0.5,7.4-1.4c2.2-0.9,4-2.2,5.5-3.9c1.5-1.7,2.7-3.8,3.5-6.2C494.6,47.4,495,44.6,495,41.5"/>
	<path style="clip-path:url(#SVGID_00000177458876964384638050000012993074144441692316_);fill:#FFB600;" d="M569.7,69.7h-8
		c-0.9,0-1.6-0.2-2.2-0.7c-0.6-0.5-1-1-1.3-1.7L554,55.8h-23.2l-4.2,11.5c-0.2,0.6-0.6,1.1-1.2,1.6c-0.6,0.5-1.3,0.7-2.2,0.7h-8.1
		l22-56.3h10.6L569.7,69.7z M533.5,48.4h17.8l-6.8-18.7c-0.3-0.8-0.7-1.8-1-2.9c-0.4-1.1-0.7-2.4-1.1-3.7c-0.4,1.3-0.7,2.6-1.1,3.7
		c-0.3,1.1-0.7,2.1-1,3L533.5,48.4z"/>
	<path style="clip-path:url(#SVGID_00000177458876964384638050000012993074144441692316_);fill:#FFB600;" d="M620.5,56.4
		c0.6,0,1.1,0.2,1.5,0.7l4.1,4.5c-2.3,2.8-5.1,5-8.4,6.5c-3.3,1.5-7.3,2.3-11.9,2.3c-4.2,0-7.9-0.7-11.2-2.1c-3.3-1.4-6.1-3.4-8.5-6
		c-2.3-2.5-4.1-5.6-5.4-9.1c-1.3-3.5-1.9-7.4-1.9-11.6c0-4.2,0.7-8.1,2.1-11.6c1.4-3.5,3.4-6.6,5.9-9.1c2.5-2.5,5.6-4.5,9.1-5.9
		c3.5-1.4,7.4-2.1,11.7-2.1c4.1,0,7.8,0.7,10.9,2c3.1,1.3,5.8,3.1,8,5.3l-3.5,4.9c-0.2,0.3-0.5,0.6-0.8,0.8
		c-0.3,0.2-0.8,0.4-1.3,0.4c-0.6,0-1.2-0.2-1.8-0.7c-0.6-0.5-1.4-1-2.4-1.5c-1-0.5-2.2-1.1-3.6-1.5c-1.5-0.5-3.3-0.7-5.6-0.7
		c-2.6,0-5,0.5-7.2,1.4c-2.2,0.9-4.1,2.2-5.7,4c-1.6,1.7-2.8,3.8-3.7,6.3c-0.9,2.5-1.3,5.2-1.3,8.3c0,3.2,0.4,6,1.3,8.5
		c0.9,2.5,2.1,4.5,3.6,6.2c1.5,1.7,3.3,3,5.4,3.9c2.1,0.9,4.3,1.3,6.6,1.3c1.4,0,2.7-0.1,3.8-0.2c1.1-0.2,2.2-0.4,3.2-0.7
		c1-0.3,1.9-0.8,2.7-1.3c0.9-0.5,1.7-1.2,2.6-2c0.3-0.2,0.5-0.4,0.8-0.6C619.9,56.4,620.2,56.4,620.5,56.4"/>
	
		<rect x="643.9" y="13.3" style="clip-path:url(#SVGID_00000177458876964384638050000012993074144441692316_);fill:#FFB600;" width="10.4" height="56.3"/>
	<path style="clip-path:url(#SVGID_00000177458876964384638050000012993074144441692316_);fill:#FFB600;" d="M729.1,41.5
		c0,4.1-0.7,8-2,11.5c-1.4,3.5-3.3,6.6-5.8,9.1c-2.5,2.6-5.4,4.6-8.9,6c-3.5,1.4-7.3,2.2-11.6,2.2c-4.2,0-8.1-0.7-11.6-2.2
		c-3.5-1.4-6.5-3.4-9-6c-2.5-2.6-4.4-5.6-5.8-9.1c-1.4-3.5-2-7.3-2-11.5s0.7-8,2-11.5c1.4-3.5,3.3-6.6,5.8-9.1c2.5-2.6,5.5-4.6,9-6
		c3.5-1.4,7.4-2.2,11.6-2.2c4.2,0,8.1,0.7,11.6,2.2c3.5,1.5,6.5,3.5,8.9,6c2.5,2.6,4.4,5.6,5.8,9.1
		C728.5,33.5,729.1,37.4,729.1,41.5 M718.5,41.5c0-3.1-0.4-5.9-1.2-8.3c-0.8-2.5-2-4.5-3.5-6.3c-1.5-1.7-3.4-3-5.5-3.9
		c-2.2-0.9-4.6-1.4-7.4-1.4s-5.2,0.5-7.4,1.4c-2.2,0.9-4.1,2.2-5.6,3.9c-1.5,1.7-2.7,3.8-3.5,6.3c-0.8,2.5-1.2,5.2-1.2,8.3
		c0,3.1,0.4,5.9,1.2,8.3c0.8,2.5,2,4.5,3.5,6.2c1.5,1.7,3.4,3,5.6,3.9c2.2,0.9,4.7,1.4,7.4,1.4s5.2-0.5,7.4-1.4
		c2.2-0.9,4-2.2,5.5-3.9c1.5-1.7,2.7-3.8,3.5-6.2C718.1,47.4,718.5,44.6,718.5,41.5 M715.8-0.1l-11.4,8.4c-0.3,0.2-0.6,0.4-0.8,0.5
		c-0.2,0.1-0.5,0.2-0.7,0.3c-0.2,0.1-0.5,0.1-0.8,0.2c-0.3,0-0.6,0-0.9,0h-7.5l7.6-7.9c0.3-0.3,0.6-0.6,0.9-0.8
		c0.3-0.2,0.5-0.4,0.8-0.5c0.3-0.1,0.6-0.2,1-0.2c0.4,0,0.8-0.1,1.3-0.1H715.8z"/>
	<path style="clip-path:url(#SVGID_00000177458876964384638050000012993074144441692316_);fill:#FFB600;" d="M752.6,13.4
		c0.3,0,0.6,0.1,0.8,0.2c0.2,0.1,0.5,0.3,0.7,0.5c0.2,0.2,0.5,0.5,0.8,0.9l29.3,37.7c-0.1-0.9-0.2-1.8-0.2-2.7
		c0-0.9-0.1-1.7-0.1-2.4V13.3h9.2v56.3h-5.4c-0.8,0-1.5-0.1-2.1-0.4c-0.5-0.3-1.1-0.7-1.6-1.4l-29.2-37.5c0.1,0.8,0.1,1.7,0.2,2.5
		c0,0.8,0.1,1.6,0.1,2.2v34.6H746V13.3h5.5C751.9,13.3,752.3,13.3,752.6,13.4"/>
</g>
</svg>
