<?xml version="1.0" encoding="UTF-8"?>
<!DOCTYPE svg PUBLIC "-//W3C//DTD SVG 1.1//EN" "http://www.w3.org/Graphics/SVG/1.1/DTD/svg11.dtd">
<svg xmlns="http://www.w3.org/2000/svg" version="1.1"  width="294px" height="300px" style="shape-rendering:geometricPrecision; text-rendering:geometricPrecision; image-rendering:optimizeQuality; fill-rule:evenodd; clip-rule:evenodd" xmlns:xlink="http://www.w3.org/1999/xlink">
<g><path style="opacity:0.999" fill="#dc4b3e" d="M 208.5,-0.5 C 216.5,-0.5 224.5,-0.5 232.5,-0.5C 264.544,6.54495 284.878,25.8783 293.5,57.5C 293.5,65.8333 293.5,74.1667 293.5,82.5C 291.253,91.0578 288.087,99.3912 284,107.5C 277.004,118.653 269.837,129.653 262.5,140.5C 241.057,165.412 228.223,194.412 224,227.5C 222.961,228.71 221.794,229.71 220.5,230.5C 218.5,229.833 217.167,228.5 216.5,226.5C 212.569,195.659 200.902,168.326 181.5,144.5C 174.164,133.825 166.83,123.158 159.5,112.5C 153.988,102.466 150.155,91.7996 148,80.5C 147.333,72.8333 147.333,65.1667 148,57.5C 149.67,49.8388 152.17,42.5055 155.5,35.5C 167.853,15.8131 185.52,3.81314 208.5,-0.5 Z"/></g>
<g><path style="opacity:1" fill="#22a462" d="M 155.5,35.5 C 152.17,42.5055 149.67,49.8388 148,57.5C 147.333,65.1667 147.333,72.8333 148,80.5C 150.155,91.7996 153.988,102.466 159.5,112.5C 106.167,165.5 52.8333,218.5 -0.5,271.5C -0.5,198.5 -0.5,125.5 -0.5,52.5C 3.03903,42.8131 10.039,37.3131 20.5,36C 65.7065,35.5139 110.706,35.3472 155.5,35.5 Z"/></g>
<g><path style="opacity:1" fill="#802c27" d="M 214.5,45.5 C 228.743,44.0344 238.909,49.701 245,62.5C 246.844,85.3231 236.344,95.8231 213.5,94C 200.469,89.4343 194.302,80.2676 195,66.5C 195.25,63.2464 196.25,60.2464 198,57.5C 202.334,51.6326 207.834,47.6326 214.5,45.5 Z"/></g>
<g><path style="opacity:1" fill="#edeeed" d="M 53.5,62.5 C 62.9306,61.6464 71.9306,63.1464 80.5,67C 82.9757,68.3088 84.9757,70.1421 86.5,72.5C 83.516,75.9846 80.3493,79.318 77,82.5C 64.5262,73.5141 53.1929,74.8474 43,86.5C 35.3606,102.58 39.5273,114.747 55.5,123C 68.8215,125.629 78.1548,120.795 83.5,108.5C 76.1968,107.503 68.8635,107.169 61.5,107.5C 61.5,103.167 61.5,98.8333 61.5,94.5C 73.5,94.5 85.5,94.5 97.5,94.5C 100.002,120.821 88.1691,135.154 62,137.5C 44.4106,136.578 32.4106,127.911 26,111.5C 21.3884,87.3089 30.5551,70.9755 53.5,62.5 Z"/></g>
<g><path style="opacity:0.998" fill="#fadb43" d="M 159.5,112.5 C 166.83,123.158 174.164,133.825 181.5,144.5C 173.5,152.167 165.5,159.833 157.5,167.5C 156.883,167.389 156.383,167.056 156,166.5C 147.333,175.167 138.667,183.833 130,192.5C 129.53,193.577 129.697,194.577 130.5,195.5C 95.5,229.833 60.8333,264.5 26.5,299.5C 23.1667,299.5 19.8333,299.5 16.5,299.5C 8.19869,296.863 2.53202,291.529 -0.5,283.5C -0.5,279.5 -0.5,275.5 -0.5,271.5C 52.8333,218.5 106.167,165.5 159.5,112.5 Z"/></g>
<g><path style="opacity:0.967" fill="#c2c1c1" d="M 262.5,140.5 C 262.5,184.5 262.5,228.5 262.5,272.5C 248.167,258.833 234.167,244.833 220.5,230.5C 221.794,229.71 222.961,228.71 224,227.5C 228.223,194.412 241.057,165.412 262.5,140.5 Z"/></g>
<g><path style="opacity:1" fill="#c2c1c0" d="M 181.5,144.5 C 200.902,168.326 212.569,195.659 216.5,226.5C 196.5,207.167 176.833,187.5 157.5,167.5C 165.5,159.833 173.5,152.167 181.5,144.5 Z"/></g>
<g><path style="opacity:0.996" fill="#fdfefe" d="M 157.5,167.5 C 176.833,187.5 196.5,207.167 216.5,226.5C 217.167,228.5 218.5,229.833 220.5,230.5C 234.167,244.833 248.167,258.833 262.5,272.5C 262.951,286.041 257.284,295.041 245.5,299.5C 241.833,299.5 238.167,299.5 234.5,299.5C 200.167,264.5 165.5,229.833 130.5,195.5C 129.697,194.577 129.53,193.577 130,192.5C 138.667,183.833 147.333,175.167 156,166.5C 156.383,167.056 156.883,167.389 157.5,167.5 Z"/></g>
<g><path style="opacity:1" fill="#5184c4" d="M 130.5,195.5 C 165.5,229.833 200.167,264.5 234.5,299.5C 165.167,299.5 95.8333,299.5 26.5,299.5C 60.8333,264.5 95.5,229.833 130.5,195.5 Z"/></g>
</svg>
