<?xml version="1.0" encoding="UTF-8"?>
<!DOCTYPE svg PUBLIC "-//W3C//DTD SVG 1.1//EN" "http://www.w3.org/Graphics/SVG/1.1/DTD/svg11.dtd">
<svg xmlns="http://www.w3.org/2000/svg" version="1.1" width="64px" height="64px" style="shape-rendering:geometricPrecision; text-rendering:geometricPrecision; image-rendering:optimizeQuality; fill-rule:evenodd; clip-rule:evenodd" xmlns:xlink="http://www.w3.org/1999/xlink">
<g><path style="opacity:0.743" fill="#ffffff" d="M 3.5,-0.5 C 22.1667,-0.5 40.8333,-0.5 59.5,-0.5C 61.1667,0.5 62.5,1.83333 63.5,3.5C 63.5,12.5 63.5,21.5 63.5,30.5C 62.1667,30.5 60.8333,30.5 59.5,30.5C 59.5,26.1667 59.5,21.8333 59.5,17.5C 40.8333,17.5 22.1667,17.5 3.5,17.5C 3.33344,30.8375 3.5001,44.1708 4,57.5C 4.5,58 5,58.5 5.5,59C 13.8267,59.4997 22.16,59.6664 30.5,59.5C 30.5,60.8333 30.5,62.1667 30.5,63.5C 21.5,63.5 12.5,63.5 3.5,63.5C 1.83333,62.5 0.5,61.1667 -0.5,59.5C -0.5,40.8333 -0.5,22.1667 -0.5,3.5C 0.5,1.83333 1.83333,0.5 3.5,-0.5 Z M 5.5,3.5 C 22.8365,3.33339 40.1699,3.50006 57.5,4C 59.3398,6.82627 60.0065,9.99294 59.5,13.5C 40.8333,13.5 22.1667,13.5 3.5,13.5C 3.03391,9.83798 3.70057,6.50464 5.5,3.5 Z"/></g>
<g><path style="opacity:0.539" fill="#ffffff" d="M 6.5,6.5 C 8.5,6.5 10.5,6.5 12.5,6.5C 12.5,7.83333 12.5,9.16667 12.5,10.5C 10.5,10.5 8.5,10.5 6.5,10.5C 6.5,9.16667 6.5,7.83333 6.5,6.5 Z"/></g>
<g><path style="opacity:0.539" fill="#ffffff" d="M 14.5,6.5 C 16.5,6.5 18.5,6.5 20.5,6.5C 20.5,7.83333 20.5,9.16667 20.5,10.5C 18.5,10.5 16.5,10.5 14.5,10.5C 14.5,9.16667 14.5,7.83333 14.5,6.5 Z"/></g>
<g><path style="opacity:0.719" fill="#ffffff" d="M 63.5,43.5 C 63.5,46.5 63.5,49.5 63.5,52.5C 61.0787,57.9226 57.0787,61.5892 51.5,63.5C 49.1667,63.5 46.8333,63.5 44.5,63.5C 32.3886,57.8288 29.7219,49.1621 36.5,37.5C 47.7846,29.3811 56.7846,31.3811 63.5,43.5 Z M 45.5,36.5 C 58.1262,37.7726 61.7929,44.106 56.5,55.5C 51.4339,60.3145 46.1006,60.6478 40.5,56.5C 34.3902,47.8366 36.0569,41.1699 45.5,36.5 Z"/></g>
<g><path style="opacity:0.854" fill="#ffffff" d="M 46.5,41.5 C 47.5,41.5 48.5,41.5 49.5,41.5C 49.5,43.1667 49.5,44.8333 49.5,46.5C 51.1667,46.5 52.8333,46.5 54.5,46.5C 54.5,47.5 54.5,48.5 54.5,49.5C 52.8333,49.5 51.1667,49.5 49.5,49.5C 49.5,51.1667 49.5,52.8333 49.5,54.5C 48.5,54.5 47.5,54.5 46.5,54.5C 46.5,52.8333 46.5,51.1667 46.5,49.5C 44.8333,49.5 43.1667,49.5 41.5,49.5C 41.5,48.5 41.5,47.5 41.5,46.5C 43.1667,46.5 44.8333,46.5 46.5,46.5C 46.5,44.8333 46.5,43.1667 46.5,41.5 Z"/></g>
</svg>
