<?xml version="1.0" encoding="UTF-8"?>
<!DOCTYPE svg PUBLIC "-//W3C//DTD SVG 1.1//EN" "http://www.w3.org/Graphics/SVG/1.1/DTD/svg11.dtd">
<svg xmlns="http://www.w3.org/2000/svg" version="1.1" width="512px" height="512px" style="shape-rendering:geometricPrecision; text-rendering:geometricPrecision; image-rendering:optimizeQuality; fill-rule:evenodd; clip-rule:evenodd" xmlns:xlink="http://www.w3.org/1999/xlink">
<g><path style="opacity:0.98" fill="#ffffff" d="M 119.5,-0.5 C 210.167,-0.5 300.833,-0.5 391.5,-0.5C 408.137,4.97348 418.304,16.3068 422,33.5C 422.667,181.5 422.667,329.5 422,477.5C 418.304,494.693 408.137,506.027 391.5,511.5C 300.833,511.5 210.167,511.5 119.5,511.5C 102.863,506.027 92.6959,494.693 89,477.5C 88.3333,329.5 88.3333,181.5 89,33.5C 92.6959,16.3068 102.863,4.97348 119.5,-0.5 Z M 129.5,29.5 C 138.839,29.3335 148.173,29.5002 157.5,30C 161.56,41.3989 165.393,52.8989 169,64.5C 170.5,70 174,73.5 179.5,75C 229.833,75.6667 280.167,75.6667 330.5,75C 333.698,74.1515 336.531,72.6515 339,70.5C 344.433,57.2004 349.266,43.7004 353.5,30C 362.833,29.3333 372.167,29.3333 381.5,30C 384.973,30.3194 387.806,31.8194 390,34.5C 391.496,155.419 391.996,276.419 391.5,397.5C 300.833,397.5 210.167,397.5 119.5,397.5C 119.333,277.166 119.5,156.833 120,36.5C 122.086,32.5547 125.253,30.2213 129.5,29.5 Z M 190.5,29.5 C 233.838,29.1667 277.172,29.5001 320.5,30.5C 318.927,35.0553 317.26,39.5553 315.5,44C 275.5,44.6667 235.5,44.6667 195.5,44C 193.535,39.272 191.868,34.4387 190.5,29.5 Z M 119.5,427.5 C 210.167,427.5 300.833,427.5 391.5,427.5C 391.667,443.17 391.5,458.837 391,474.5C 389.833,477 388,478.833 385.5,480C 342.211,481.156 298.878,481.656 255.5,481.5C 212.122,481.656 168.789,481.156 125.5,480C 123,478.833 121.167,477 120,474.5C 119.5,458.837 119.333,443.17 119.5,427.5 Z"/></g>
<g><path style="opacity:0.972" fill="#fffff" d="M 230.5,439.5 C 247.17,439.333 263.837,439.5 280.5,440C 288.915,444.348 291.748,451.181 289,460.5C 287.5,464.667 284.667,467.5 280.5,469C 263.833,469.667 247.167,469.667 230.5,469C 221.525,463.848 219.025,456.348 223,446.5C 225.015,443.588 227.515,441.255 230.5,439.5 Z"/></g>
</svg>
