<?xml version="1.0" encoding="UTF-8"?>
<!DOCTYPE svg PUBLIC "-//W3C//DTD SVG 1.1//EN" "http://www.w3.org/Graphics/SVG/1.1/DTD/svg11.dtd">
<svg xmlns="http://www.w3.org/2000/svg" version="1.1" width="512px" height="512px" style="shape-rendering:geometricPrecision; text-rendering:geometricPrecision; image-rendering:optimizeQuality; fill-rule:evenodd; clip-rule:evenodd" xmlns:xlink="http://www.w3.org/1999/xlink">
<g><path style="opacity:0.944" fill="#ffffff" d="M 101.5,9.5 C 111.644,8.8264 120.644,11.6597 128.5,18C 157.667,47.1667 186.833,76.3333 216,105.5C 224.794,118.185 225.794,131.518 219,145.5C 201.015,164.319 182.848,182.986 164.5,201.5C 192.1,256.16 231.767,299.993 283.5,333C 292.01,337.755 300.676,342.255 309.5,346.5C 328.014,328.152 346.681,309.985 365.5,292C 379.482,285.206 392.815,286.206 405.5,295C 436.028,325.194 466.195,355.694 496,386.5C 502.835,398.001 503.168,409.668 497,421.5C 476.833,443 456,463.833 434.5,484C 416.201,496.163 396.201,500.163 374.5,496C 314.102,479.796 258.769,453.463 208.5,417C 115.88,348.296 52.3802,258.796 18,148.5C 8.99754,121.526 12.6642,96.5265 29,73.5C 48.1667,54.3333 67.3333,35.1667 86.5,16C 91.142,12.7399 96.142,10.5732 101.5,9.5 Z M 102.5,32.5 C 106.544,31.9579 110.211,32.7912 113.5,35C 142,63.5 170.5,92 199,120.5C 202.333,125.167 202.333,129.833 199,134.5C 180.333,153.167 161.667,171.833 143,190.5C 141.299,192.9 140.466,195.567 140.5,198.5C 146.483,218.466 155.65,236.8 168,253.5C 196.001,292.17 229.835,324.67 269.5,351C 282.983,359.826 297.483,366.326 313,370.5C 315.3,370.506 317.466,370.006 319.5,369C 338.5,350 357.5,331 376.5,312C 381.167,308.667 385.833,308.667 390.5,312C 419,340.5 447.5,369 476,397.5C 478.886,401.598 479.219,405.931 477,410.5C 459.167,428.333 441.333,446.167 423.5,464C 410.337,473.943 395.671,477.276 379.5,474C 303.616,453.406 236.95,416.739 179.5,364C 110.275,300.417 62.775,223.251 37,132.5C 33.5867,115.971 36.9201,100.971 47,87.5C 65.395,68.9378 83.895,50.6044 102.5,32.5 Z"/></g>
</svg>
